<mxfile host="app.diagrams.net" agent="Mozilla/5.0 (Windows NT 10.0; Win64; x64) AppleWebKit/537.36 (KHTML, like Gecko) Chrome/131.0.0.0 Safari/537.36" version="24.8.4">
  <diagram name="Page-1" id="uPnJARMUz1Hhlf_A2tz9">
    <mxGraphModel dx="1573" dy="635" grid="0" gridSize="10" guides="1" tooltips="1" connect="1" arrows="1" fold="1" page="0" pageScale="1" pageWidth="850" pageHeight="1100" math="0" shadow="0">
      <root>
        <mxCell id="0" />
        <mxCell id="1" parent="0" />
        <mxCell id="ygli0sFNd6noXZDZp_-x-2" value="" style="shape=umlLifeline;perimeter=lifelinePerimeter;whiteSpace=wrap;html=1;container=1;dropTarget=0;collapsible=0;recursiveResize=0;outlineConnect=0;portConstraint=eastwest;newEdgeStyle={&quot;curved&quot;:0,&quot;rounded&quot;:0};participant=umlActor;" vertex="1" parent="1">
          <mxGeometry x="-267" y="10" width="20" height="1193" as="geometry" />
        </mxCell>
        <mxCell id="ygli0sFNd6noXZDZp_-x-3" value="Employee Management System Interface" style="shape=umlLifeline;perimeter=lifelinePerimeter;whiteSpace=wrap;html=1;container=1;dropTarget=0;collapsible=0;recursiveResize=0;outlineConnect=0;portConstraint=eastwest;newEdgeStyle={&quot;curved&quot;:0,&quot;rounded&quot;:0};" vertex="1" parent="1">
          <mxGeometry x="-85" y="6" width="100" height="1208" as="geometry" />
        </mxCell>
        <mxCell id="ygli0sFNd6noXZDZp_-x-4" value="Security Layer" style="shape=umlLifeline;perimeter=lifelinePerimeter;whiteSpace=wrap;html=1;container=1;dropTarget=0;collapsible=0;recursiveResize=0;outlineConnect=0;portConstraint=eastwest;newEdgeStyle={&quot;curved&quot;:0,&quot;rounded&quot;:0};" vertex="1" parent="1">
          <mxGeometry x="102" y="3" width="111" height="1207" as="geometry" />
        </mxCell>
        <mxCell id="ygli0sFNd6noXZDZp_-x-5" value="&lt;div&gt;Employee Controller&lt;/div&gt;&lt;div&gt;&lt;br&gt;&lt;/div&gt;" style="shape=umlLifeline;perimeter=lifelinePerimeter;whiteSpace=wrap;html=1;container=1;dropTarget=0;collapsible=0;recursiveResize=0;outlineConnect=0;portConstraint=eastwest;newEdgeStyle={&quot;curved&quot;:0,&quot;rounded&quot;:0};" vertex="1" parent="1">
          <mxGeometry x="273" y="3" width="100" height="1212" as="geometry" />
        </mxCell>
        <mxCell id="ygli0sFNd6noXZDZp_-x-6" value="Employee Repository" style="shape=umlLifeline;perimeter=lifelinePerimeter;whiteSpace=wrap;html=1;container=1;dropTarget=0;collapsible=0;recursiveResize=0;outlineConnect=0;portConstraint=eastwest;newEdgeStyle={&quot;curved&quot;:0,&quot;rounded&quot;:0};" vertex="1" parent="1">
          <mxGeometry x="436" y="3" width="100" height="1219" as="geometry" />
        </mxCell>
        <mxCell id="ygli0sFNd6noXZDZp_-x-8" value="username,password" style="html=1;verticalAlign=bottom;endArrow=block;curved=0;rounded=0;fontSize=12;startSize=8;endSize=8;" edge="1" parent="1" target="ygli0sFNd6noXZDZp_-x-3">
          <mxGeometry width="80" relative="1" as="geometry">
            <mxPoint x="-255" y="90" as="sourcePoint" />
            <mxPoint x="-175" y="90" as="targetPoint" />
          </mxGeometry>
        </mxCell>
        <mxCell id="ygli0sFNd6noXZDZp_-x-9" value="loop" style="shape=umlFrame;whiteSpace=wrap;html=1;pointerEvents=0;" vertex="1" parent="1">
          <mxGeometry x="-277" y="100" width="477" height="200" as="geometry" />
        </mxCell>
        <mxCell id="ygli0sFNd6noXZDZp_-x-10" value="&lt;font style=&quot;font-size: 10px;&quot;&gt;[Signin Authentication]&lt;/font&gt;" style="text;html=1;align=center;verticalAlign=middle;resizable=0;points=[];autosize=1;strokeColor=none;fillColor=none;fontSize=16;" vertex="1" parent="1">
          <mxGeometry x="-212" y="90" width="117" height="31" as="geometry" />
        </mxCell>
        <mxCell id="ygli0sFNd6noXZDZp_-x-11" value="Validate login credientials" style="html=1;verticalAlign=bottom;endArrow=block;curved=0;rounded=0;fontSize=12;startSize=8;endSize=8;" edge="1" parent="1" target="ygli0sFNd6noXZDZp_-x-4">
          <mxGeometry width="80" relative="1" as="geometry">
            <mxPoint x="-34" y="128" as="sourcePoint" />
            <mxPoint x="46" y="128" as="targetPoint" />
          </mxGeometry>
        </mxCell>
        <mxCell id="ygli0sFNd6noXZDZp_-x-12" value="alt" style="shape=umlFrame;whiteSpace=wrap;html=1;pointerEvents=0;" vertex="1" parent="1">
          <mxGeometry x="-269" y="146" width="444" height="136" as="geometry" />
        </mxCell>
        <mxCell id="ygli0sFNd6noXZDZp_-x-13" value="&lt;font style=&quot;font-size: 10px;&quot;&gt;[Valid credientials]&lt;/font&gt;" style="text;html=1;align=center;verticalAlign=middle;resizable=0;points=[];autosize=1;strokeColor=none;fillColor=none;fontSize=16;" vertex="1" parent="1">
          <mxGeometry x="-200" y="137.5" width="98" height="31" as="geometry" />
        </mxCell>
        <mxCell id="ygli0sFNd6noXZDZp_-x-14" value="Valid user" style="html=1;verticalAlign=bottom;endArrow=open;dashed=1;endSize=8;curved=0;rounded=0;fontSize=12;" edge="1" parent="1" source="ygli0sFNd6noXZDZp_-x-4">
          <mxGeometry relative="1" as="geometry">
            <mxPoint x="46" y="168.5" as="sourcePoint" />
            <mxPoint x="-34" y="168.5" as="targetPoint" />
          </mxGeometry>
        </mxCell>
        <mxCell id="ygli0sFNd6noXZDZp_-x-15" value="Login Successfull" style="html=1;verticalAlign=bottom;endArrow=open;dashed=1;endSize=8;curved=0;rounded=0;fontSize=12;" edge="1" parent="1">
          <mxGeometry relative="1" as="geometry">
            <mxPoint x="-37.5" y="199.5" as="sourcePoint" />
            <mxPoint x="-259" y="199.5" as="targetPoint" />
          </mxGeometry>
        </mxCell>
        <mxCell id="ygli0sFNd6noXZDZp_-x-16" value="" style="endArrow=none;dashed=1;html=1;rounded=0;fontSize=12;startSize=8;endSize=8;curved=1;entryX=1.002;entryY=0.676;entryDx=0;entryDy=0;entryPerimeter=0;" edge="1" parent="1">
          <mxGeometry width="50" height="50" relative="1" as="geometry">
            <mxPoint x="-269.89" y="216.53" as="sourcePoint" />
            <mxPoint x="174.99799999999993" y="211.46600000000004" as="targetPoint" />
          </mxGeometry>
        </mxCell>
        <mxCell id="ygli0sFNd6noXZDZp_-x-17" value="&lt;font style=&quot;font-size: 10px;&quot;&gt;[invalid credentials]&lt;/font&gt;" style="text;html=1;align=center;verticalAlign=middle;resizable=0;points=[];autosize=1;strokeColor=none;fillColor=none;fontSize=16;" vertex="1" parent="1">
          <mxGeometry x="-222" y="207" width="103" height="31" as="geometry" />
        </mxCell>
        <mxCell id="ygli0sFNd6noXZDZp_-x-18" value="invalid credentials" style="html=1;verticalAlign=bottom;endArrow=open;dashed=1;endSize=8;curved=0;rounded=0;fontSize=12;" edge="1" parent="1">
          <mxGeometry relative="1" as="geometry">
            <mxPoint x="150" y="242.5" as="sourcePoint" />
            <mxPoint x="-36" y="242" as="targetPoint" />
          </mxGeometry>
        </mxCell>
        <mxCell id="ygli0sFNd6noXZDZp_-x-19" value="Login failed" style="html=1;verticalAlign=bottom;endArrow=open;dashed=1;endSize=8;curved=0;rounded=0;fontSize=12;" edge="1" parent="1">
          <mxGeometry relative="1" as="geometry">
            <mxPoint x="-33.5" y="264" as="sourcePoint" />
            <mxPoint x="-255" y="264" as="targetPoint" />
          </mxGeometry>
        </mxCell>
        <mxCell id="ygli0sFNd6noXZDZp_-x-20" value="fetch employee data" style="html=1;verticalAlign=bottom;endArrow=block;curved=0;rounded=0;fontSize=12;startSize=8;endSize=8;" edge="1" parent="1" target="ygli0sFNd6noXZDZp_-x-3">
          <mxGeometry width="80" relative="1" as="geometry">
            <mxPoint x="-257" y="337.5" as="sourcePoint" />
            <mxPoint x="-71" y="337.5" as="targetPoint" />
          </mxGeometry>
        </mxCell>
        <mxCell id="ygli0sFNd6noXZDZp_-x-22" value="getAllEmployees()" style="html=1;verticalAlign=bottom;endArrow=block;curved=0;rounded=0;fontSize=12;startSize=8;endSize=8;" edge="1" parent="1" target="ygli0sFNd6noXZDZp_-x-5">
          <mxGeometry width="80" relative="1" as="geometry">
            <mxPoint x="-36" y="363" as="sourcePoint" />
            <mxPoint x="186" y="363.5" as="targetPoint" />
          </mxGeometry>
        </mxCell>
        <mxCell id="ygli0sFNd6noXZDZp_-x-23" value="query all employee data" style="html=1;verticalAlign=bottom;endArrow=block;curved=0;rounded=0;fontSize=12;startSize=8;endSize=8;" edge="1" parent="1" target="ygli0sFNd6noXZDZp_-x-6">
          <mxGeometry width="80" relative="1" as="geometry">
            <mxPoint x="322" y="388" as="sourcePoint" />
            <mxPoint x="681" y="388" as="targetPoint" />
          </mxGeometry>
        </mxCell>
        <mxCell id="ygli0sFNd6noXZDZp_-x-24" value="List&amp;lt;Employee&amp;gt;" style="html=1;verticalAlign=bottom;endArrow=open;dashed=1;endSize=8;curved=0;rounded=0;fontSize=12;" edge="1" parent="1" source="ygli0sFNd6noXZDZp_-x-6">
          <mxGeometry relative="1" as="geometry">
            <mxPoint x="401" y="424" as="sourcePoint" />
            <mxPoint x="321" y="424" as="targetPoint" />
          </mxGeometry>
        </mxCell>
        <mxCell id="ygli0sFNd6noXZDZp_-x-25" value="List&amp;lt;Employee&amp;gt;" style="html=1;verticalAlign=bottom;endArrow=open;dashed=1;endSize=8;curved=0;rounded=0;fontSize=12;" edge="1" parent="1" target="ygli0sFNd6noXZDZp_-x-3">
          <mxGeometry relative="1" as="geometry">
            <mxPoint x="323" y="460" as="sourcePoint" />
            <mxPoint x="158" y="460" as="targetPoint" />
          </mxGeometry>
        </mxCell>
        <mxCell id="ygli0sFNd6noXZDZp_-x-26" value="Display Employee List" style="html=1;verticalAlign=bottom;endArrow=open;dashed=1;endSize=8;curved=0;rounded=0;fontSize=12;" edge="1" parent="1">
          <mxGeometry relative="1" as="geometry">
            <mxPoint x="-36" y="495" as="sourcePoint" />
            <mxPoint x="-256" y="498" as="targetPoint" />
          </mxGeometry>
        </mxCell>
        <mxCell id="ygli0sFNd6noXZDZp_-x-28" value="alt" style="shape=umlFrame;whiteSpace=wrap;html=1;pointerEvents=0;" vertex="1" parent="1">
          <mxGeometry x="-297" y="524" width="835" height="200" as="geometry" />
        </mxCell>
        <mxCell id="ygli0sFNd6noXZDZp_-x-29" value="&lt;font style=&quot;font-size: 10px;&quot;&gt;Add new employee&lt;/font&gt;" style="text;html=1;align=center;verticalAlign=middle;resizable=0;points=[];autosize=1;strokeColor=none;fillColor=none;fontSize=16;" vertex="1" parent="1">
          <mxGeometry x="-224" y="515" width="103" height="31" as="geometry" />
        </mxCell>
        <mxCell id="ygli0sFNd6noXZDZp_-x-30" value="Add Employee details" style="html=1;verticalAlign=bottom;endArrow=block;curved=0;rounded=0;fontSize=12;startSize=8;endSize=8;" edge="1" parent="1">
          <mxGeometry width="80" relative="1" as="geometry">
            <mxPoint x="-255" y="590" as="sourcePoint" />
            <mxPoint x="-33" y="590.5" as="targetPoint" />
          </mxGeometry>
        </mxCell>
        <mxCell id="ygli0sFNd6noXZDZp_-x-31" value="saveEmployee(Employee)" style="html=1;verticalAlign=bottom;endArrow=block;curved=0;rounded=0;fontSize=12;startSize=8;endSize=8;" edge="1" parent="1" target="ygli0sFNd6noXZDZp_-x-5">
          <mxGeometry width="80" relative="1" as="geometry">
            <mxPoint x="-35" y="606" as="sourcePoint" />
            <mxPoint x="187" y="606.5" as="targetPoint" />
          </mxGeometry>
        </mxCell>
        <mxCell id="ygli0sFNd6noXZDZp_-x-32" value="Save Employee" style="html=1;verticalAlign=bottom;endArrow=block;curved=0;rounded=0;fontSize=12;startSize=8;endSize=8;" edge="1" parent="1" target="ygli0sFNd6noXZDZp_-x-6">
          <mxGeometry width="80" relative="1" as="geometry">
            <mxPoint x="324" y="623.5" as="sourcePoint" />
            <mxPoint x="682" y="623.5" as="targetPoint" />
          </mxGeometry>
        </mxCell>
        <mxCell id="ygli0sFNd6noXZDZp_-x-33" value="Save Confirmation" style="html=1;verticalAlign=bottom;endArrow=open;dashed=1;endSize=8;curved=0;rounded=0;fontSize=12;" edge="1" parent="1">
          <mxGeometry relative="1" as="geometry">
            <mxPoint x="486" y="651.5" as="sourcePoint" />
            <mxPoint x="321" y="651.5" as="targetPoint" />
          </mxGeometry>
        </mxCell>
        <mxCell id="ygli0sFNd6noXZDZp_-x-34" value="Employee Added" style="html=1;verticalAlign=bottom;endArrow=open;dashed=1;endSize=8;curved=0;rounded=0;fontSize=12;" edge="1" parent="1" target="ygli0sFNd6noXZDZp_-x-3">
          <mxGeometry relative="1" as="geometry">
            <mxPoint x="321" y="673" as="sourcePoint" />
            <mxPoint x="156" y="673" as="targetPoint" />
          </mxGeometry>
        </mxCell>
        <mxCell id="ygli0sFNd6noXZDZp_-x-35" value="Employee Added successfully" style="html=1;verticalAlign=bottom;endArrow=open;dashed=1;endSize=8;curved=0;rounded=0;fontSize=12;" edge="1" parent="1" target="ygli0sFNd6noXZDZp_-x-2">
          <mxGeometry relative="1" as="geometry">
            <mxPoint x="-36" y="699" as="sourcePoint" />
            <mxPoint x="-392" y="699" as="targetPoint" />
          </mxGeometry>
        </mxCell>
        <mxCell id="ygli0sFNd6noXZDZp_-x-44" value="alt" style="shape=umlFrame;whiteSpace=wrap;html=1;pointerEvents=0;" vertex="1" parent="1">
          <mxGeometry x="-297" y="744" width="835" height="200" as="geometry" />
        </mxCell>
        <mxCell id="ygli0sFNd6noXZDZp_-x-45" value="&lt;font style=&quot;font-size: 10px;&quot;&gt;update employee details&lt;/font&gt;" style="text;html=1;align=center;verticalAlign=middle;resizable=0;points=[];autosize=1;strokeColor=none;fillColor=none;fontSize=16;" vertex="1" parent="1">
          <mxGeometry x="-235" y="735" width="126" height="31" as="geometry" />
        </mxCell>
        <mxCell id="ygli0sFNd6noXZDZp_-x-46" value="Edit Employee details" style="html=1;verticalAlign=bottom;endArrow=block;curved=0;rounded=0;fontSize=12;startSize=8;endSize=8;" edge="1" parent="1">
          <mxGeometry width="80" relative="1" as="geometry">
            <mxPoint x="-255" y="810" as="sourcePoint" />
            <mxPoint x="-33" y="810.5" as="targetPoint" />
          </mxGeometry>
        </mxCell>
        <mxCell id="ygli0sFNd6noXZDZp_-x-47" value="updateEmployee(Employee)" style="html=1;verticalAlign=bottom;endArrow=block;curved=0;rounded=0;fontSize=12;startSize=8;endSize=8;" edge="1" parent="1">
          <mxGeometry width="80" relative="1" as="geometry">
            <mxPoint x="-35" y="826" as="sourcePoint" />
            <mxPoint x="323" y="826" as="targetPoint" />
          </mxGeometry>
        </mxCell>
        <mxCell id="ygli0sFNd6noXZDZp_-x-48" value="Update Employee" style="html=1;verticalAlign=bottom;endArrow=block;curved=0;rounded=0;fontSize=12;startSize=8;endSize=8;" edge="1" parent="1">
          <mxGeometry width="80" relative="1" as="geometry">
            <mxPoint x="324" y="843.5" as="sourcePoint" />
            <mxPoint x="486" y="844" as="targetPoint" />
          </mxGeometry>
        </mxCell>
        <mxCell id="ygli0sFNd6noXZDZp_-x-49" value="Update Confirmation" style="html=1;verticalAlign=bottom;endArrow=open;dashed=1;endSize=8;curved=0;rounded=0;fontSize=12;" edge="1" parent="1">
          <mxGeometry relative="1" as="geometry">
            <mxPoint x="486" y="871.5" as="sourcePoint" />
            <mxPoint x="321" y="871.5" as="targetPoint" />
          </mxGeometry>
        </mxCell>
        <mxCell id="ygli0sFNd6noXZDZp_-x-50" value="Employee Updated" style="html=1;verticalAlign=bottom;endArrow=open;dashed=1;endSize=8;curved=0;rounded=0;fontSize=12;" edge="1" parent="1">
          <mxGeometry relative="1" as="geometry">
            <mxPoint x="321" y="893" as="sourcePoint" />
            <mxPoint x="-36" y="893" as="targetPoint" />
          </mxGeometry>
        </mxCell>
        <mxCell id="ygli0sFNd6noXZDZp_-x-51" value="Employee Updated successfully" style="html=1;verticalAlign=bottom;endArrow=open;dashed=1;endSize=8;curved=0;rounded=0;fontSize=12;" edge="1" parent="1">
          <mxGeometry relative="1" as="geometry">
            <mxPoint x="-36" y="919" as="sourcePoint" />
            <mxPoint x="-258" y="919" as="targetPoint" />
          </mxGeometry>
        </mxCell>
        <mxCell id="ygli0sFNd6noXZDZp_-x-53" value="alt" style="shape=umlFrame;whiteSpace=wrap;html=1;pointerEvents=0;" vertex="1" parent="1">
          <mxGeometry x="-299" y="967" width="835" height="200" as="geometry" />
        </mxCell>
        <mxCell id="ygli0sFNd6noXZDZp_-x-54" value="&lt;font style=&quot;font-size: 10px;&quot;&gt;delete employee&lt;/font&gt;" style="text;html=1;align=center;verticalAlign=middle;resizable=0;points=[];autosize=1;strokeColor=none;fillColor=none;fontSize=16;" vertex="1" parent="1">
          <mxGeometry x="-220" y="958" width="91" height="31" as="geometry" />
        </mxCell>
        <mxCell id="ygli0sFNd6noXZDZp_-x-55" value="request to delete Employee" style="html=1;verticalAlign=bottom;endArrow=block;curved=0;rounded=0;fontSize=12;startSize=8;endSize=8;" edge="1" parent="1">
          <mxGeometry width="80" relative="1" as="geometry">
            <mxPoint x="-257" y="1033" as="sourcePoint" />
            <mxPoint x="-35" y="1033.5" as="targetPoint" />
          </mxGeometry>
        </mxCell>
        <mxCell id="ygli0sFNd6noXZDZp_-x-56" value="deleteEmployee(EmployeeID)" style="html=1;verticalAlign=bottom;endArrow=block;curved=0;rounded=0;fontSize=12;startSize=8;endSize=8;" edge="1" parent="1">
          <mxGeometry width="80" relative="1" as="geometry">
            <mxPoint x="-37" y="1049" as="sourcePoint" />
            <mxPoint x="321" y="1049" as="targetPoint" />
          </mxGeometry>
        </mxCell>
        <mxCell id="ygli0sFNd6noXZDZp_-x-57" value="Delete Employee" style="html=1;verticalAlign=bottom;endArrow=block;curved=0;rounded=0;fontSize=12;startSize=8;endSize=8;" edge="1" parent="1">
          <mxGeometry width="80" relative="1" as="geometry">
            <mxPoint x="322" y="1066.5" as="sourcePoint" />
            <mxPoint x="484" y="1067" as="targetPoint" />
          </mxGeometry>
        </mxCell>
        <mxCell id="ygli0sFNd6noXZDZp_-x-58" value="Deletion Confirmation" style="html=1;verticalAlign=bottom;endArrow=open;dashed=1;endSize=8;curved=0;rounded=0;fontSize=12;" edge="1" parent="1">
          <mxGeometry relative="1" as="geometry">
            <mxPoint x="484" y="1094.5" as="sourcePoint" />
            <mxPoint x="319" y="1094.5" as="targetPoint" />
          </mxGeometry>
        </mxCell>
        <mxCell id="ygli0sFNd6noXZDZp_-x-59" value="Employee Deleted" style="html=1;verticalAlign=bottom;endArrow=open;dashed=1;endSize=8;curved=0;rounded=0;fontSize=12;" edge="1" parent="1">
          <mxGeometry relative="1" as="geometry">
            <mxPoint x="319" y="1116" as="sourcePoint" />
            <mxPoint x="-38" y="1116" as="targetPoint" />
          </mxGeometry>
        </mxCell>
        <mxCell id="ygli0sFNd6noXZDZp_-x-60" value="Employee Deleted successfully" style="html=1;verticalAlign=bottom;endArrow=open;dashed=1;endSize=8;curved=0;rounded=0;fontSize=12;" edge="1" parent="1">
          <mxGeometry relative="1" as="geometry">
            <mxPoint x="-38" y="1142" as="sourcePoint" />
            <mxPoint x="-260" y="1142" as="targetPoint" />
          </mxGeometry>
        </mxCell>
      </root>
    </mxGraphModel>
  </diagram>
</mxfile>
